<?xml version="1.0" encoding="utf-8"?>
<!-- Generator: Adobe Illustrator 18.0.0, SVG Export Plug-In . SVG Version: 6.00 Build 0)  -->
<!DOCTYPE svg PUBLIC "-//W3C//DTD SVG 1.1//EN" "http://www.w3.org/Graphics/SVG/1.1/DTD/svg11.dtd">
<svg version="1.1" xmlns="http://www.w3.org/2000/svg" xmlns:xlink="http://www.w3.org/1999/xlink" x="0px" y="0px"
	 viewBox="0 0 138 46.63" enable-background="new 0 0 138 46.63" xml:space="preserve">
<g id="Ebene_2">
</g>
<g id="Ebene_1">
	<g>
		<rect x="0" y="0" fill="#203768" width="138" height="40"/>
		<rect x="0" y="40" fill="#F9B415" width="138" height="6.63"/>
		<g>
			<path fill="#FFFFFF" d="M49.52,13.02h-4.68c-1.18,0-2.19,0.41-3.06,1.26c-0.9,0.89-1.34,1.93-1.34,3.18v7.52
				c0,0.45,0.15,0.8,0.47,1.06l0.03,0.03l0.03,0.03c0.26,0.32,0.62,0.48,1.13,0.48c0.4,0,0.76-0.17,1.12-0.53
				c0.31-0.26,0.46-0.61,0.46-1.06v-7.52c0-0.29,0.1-0.57,0.29-0.86L44,16.55l0.04-0.03c0.24-0.21,0.54-0.32,0.89-0.32h4.51
				c0.36,0,0.66,0.12,0.89,0.34l0.02,0.02l0.02,0.03c0.18,0.26,0.29,0.53,0.31,0.86v7.52c0,0.45,0.15,0.8,0.47,1.06l0.02,0.02
				l0.02,0.02c0.32,0.34,0.7,0.5,1.15,0.5c0.43,0,0.78-0.16,1.06-0.48l0.02-0.02l0.02-0.02c0.31-0.26,0.46-0.61,0.48-1.06v-7.52
				c0-1.24-0.43-2.28-1.32-3.17C51.71,13.43,50.7,13.02,49.52,13.02z"/>
			<path fill="#FFFFFF" d="M22.84,13.01l-0.08,0l-4.44,0c-1.2,0-2.21,0.41-3.08,1.25c-0.89,0.9-1.33,1.94-1.33,3.18v7.52
				c0,0.45,0.15,0.8,0.46,1.06l0.02,0.02l0.02,0.02c0.28,0.33,0.65,0.48,1.16,0.48c0.4,0,0.75-0.16,1.07-0.5l0.02-0.02l0.02-0.02
				c0.32-0.26,0.47-0.6,0.47-1.06v-7.52c0-0.29,0.1-0.57,0.29-0.86l0.02-0.03l0.02-0.02c0.22-0.22,0.54-0.34,0.91-0.34l4.34,0
				c0.47-0.02,0.85-0.18,1.21-0.52c0.32-0.28,0.47-0.63,0.47-1.07c0-0.45-0.16-0.83-0.48-1.18C23.62,13.15,23.25,13.01,22.84,13.01z
				"/>
			<path fill="#FFFFFF" d="M29.65,16.2c0.03,0,0.06,0,0.07,0l7.39,0c0.47-0.02,0.85-0.18,1.19-0.5c0.27-0.29,0.41-0.66,0.41-1.09
				c0-0.45-0.13-0.84-0.41-1.19c-0.33-0.27-0.68-0.4-1.09-0.4l-0.08,0l-7.49,0c-1.2,0-2.21,0.41-3.08,1.26
				c-0.9,0.89-1.34,1.93-1.34,3.18v4.59c0,1.29,0.44,2.32,1.35,3.18c0.89,0.9,1.93,1.33,3.17,1.33h7.4c0.46,0,0.84-0.16,1.18-0.51
				c0.27-0.27,0.4-0.63,0.4-1.08c0-0.45-0.13-0.83-0.41-1.17c-0.34-0.29-0.73-0.43-1.18-0.43h-7.4c-0.39,0-0.72-0.16-0.93-0.44
				c-0.22-0.23-0.33-0.53-0.33-0.89c0-0.31,0.22-0.62,0.72-0.62h7.94c0.45,0,0.84-0.14,1.18-0.43c0.27-0.33,0.41-0.71,0.41-1.17
				c0-0.45-0.13-0.82-0.4-1.1c-0.35-0.33-0.73-0.49-1.19-0.49l-7.98,0c-0.43-0.04-0.69-0.31-0.69-0.72c0-0.44,0.17-0.71,0.34-0.87
				C28.99,16.35,29.3,16.2,29.65,16.2z"/>
			<path fill="#FFFFFF" d="M108.71,13.01l-0.09,0l-4.44,0c-1.18,0-2.19,0.41-3.06,1.26c-0.9,0.89-1.34,1.93-1.34,3.18v7.52
				c0,0.45,0.15,0.8,0.47,1.06l0.03,0.03l0.03,0.03c0.26,0.32,0.62,0.48,1.13,0.48c0.4,0,0.76-0.17,1.12-0.53
				c0.31-0.26,0.46-0.61,0.46-1.06v-7.52c0-0.29,0.1-0.57,0.29-0.86l0.03-0.04l0.04-0.03c0.24-0.21,0.54-0.32,0.89-0.32l4.34,0
				c0.47-0.02,0.85-0.18,1.2-0.53c0.32-0.28,0.48-0.63,0.48-1.06c0-0.46-0.16-0.84-0.49-1.17
				C109.49,13.15,109.13,13.01,108.71,13.01z"/>
			<path fill="#FFFFFF" d="M120.18,13.02h-4.66c-1.2,0-2.21,0.41-3.08,1.26c-0.91,0.89-1.34,1.93-1.32,3.18v4.6
				c-0.02,1.28,0.41,2.31,1.33,3.17c0.89,0.9,1.93,1.33,3.17,1.33h4.49c1.22,0,2.26-0.44,3.17-1.34c0.89-0.86,1.32-1.89,1.32-3.17
				l0-4.59c0-1.24-0.43-2.28-1.32-3.17C122.37,13.43,121.36,13.02,120.18,13.02z M121.34,22.04c0,0.35-0.11,0.65-0.31,0.88
				c-0.24,0.3-0.55,0.45-0.93,0.45h-4.49c-0.39,0-0.72-0.16-0.94-0.46c-0.2-0.24-0.31-0.54-0.31-0.87v-4.59
				c0-0.29,0.1-0.57,0.29-0.86l0.02-0.03l0.02-0.02c0.22-0.22,0.54-0.34,0.91-0.34h4.49c0.35,0,0.64,0.11,0.89,0.32l0.04,0.03
				l0.03,0.04c0.2,0.28,0.29,0.56,0.29,0.86V22.04z"/>
			<path fill="#FFFFFF" d="M64.92,13.02h-4.68c-1.18,0-2.19,0.41-3.06,1.26c-0.9,0.89-1.34,1.93-1.34,3.18v4.59
				c0,1.29,0.44,2.32,1.35,3.18c0.89,0.9,1.92,1.33,3.15,1.33h4.51c1.22,0,2.26-0.44,3.17-1.34c0.89-0.86,1.32-1.89,1.32-3.17v-4.59
				c0-1.24-0.43-2.28-1.32-3.17C67.11,13.43,66.1,13.02,64.92,13.02z M66.08,22.04c0,0.35-0.11,0.65-0.31,0.88
				c-0.24,0.3-0.55,0.45-0.94,0.45h-4.51c-0.38,0-0.69-0.15-0.91-0.45c-0.22-0.24-0.33-0.53-0.33-0.88v-4.59
				c0-0.31,0.11-0.6,0.33-0.88l0.03-0.03c0.22-0.22,0.53-0.34,0.89-0.34h4.51c0.35,0,0.64,0.11,0.89,0.32l0.04,0.03l0.03,0.04
				c0.2,0.28,0.29,0.56,0.29,0.86V22.04z"/>
			<path fill="#FFFFFF" d="M88.92,16.2c0.03,0,0.06,0,0.07,0l7.39,0c0.47-0.02,0.85-0.18,1.19-0.5c0.27-0.29,0.41-0.66,0.41-1.09
				c0-0.45-0.13-0.84-0.41-1.19c-0.33-0.27-0.68-0.4-1.09-0.4l-0.09,0l-7.49,0c-1.2,0-2.21,0.41-3.08,1.25
				c-0.89,0.9-1.33,1.94-1.33,3.18l0,4.59c0,1.28,0.43,2.32,1.33,3.18c0.89,0.9,1.93,1.33,3.17,1.33h7.4c0.46,0,0.84-0.16,1.18-0.51
				c0.27-0.27,0.4-0.63,0.4-1.08c0-0.45-0.13-0.83-0.4-1.17c-0.34-0.29-0.73-0.43-1.18-0.43h-7.4c-0.39,0-0.72-0.16-0.93-0.44
				c-0.23-0.24-0.33-0.54-0.32-0.88c-0.01-0.15,0.04-0.3,0.13-0.41c0.13-0.15,0.32-0.22,0.57-0.22h7.94c0.45,0,0.83-0.14,1.18-0.43
				c0.27-0.33,0.4-0.71,0.4-1.17c0-0.45-0.13-0.82-0.4-1.1c-0.35-0.33-0.74-0.49-1.19-0.49l-7.98,0c-0.23-0.02-0.4-0.11-0.52-0.25
				c-0.07-0.09-0.16-0.24-0.14-0.48c-0.02-0.43,0.15-0.7,0.32-0.87C88.26,16.35,88.57,16.2,88.92,16.2z"/>
			<path fill="#FFFFFF" d="M82.11,13.01l-0.15,0c-0.63,0-1.05,0.27-1.34,0.85l-3.32,6.36l-0.55,1.04l-3.57-7.34
				c-0.29-0.62-0.71-0.91-1.34-0.91l-0.15,0c-0.42,0-0.78,0.14-1.07,0.41c-0.34,0.35-0.5,0.72-0.5,1.19c0,0.22,0.06,0.41,0.18,0.61
				l0.01,0.02l4.99,10.4c0.27,0.61,0.73,0.91,1.4,0.91c0.66,0,1.13-0.28,1.47-0.85l5.35-10.36c0.12-0.27,0.18-0.51,0.18-0.74
				c0-0.45-0.16-0.83-0.48-1.18C82.89,13.15,82.53,13.01,82.11,13.01z"/>
		</g>
	</g>
</g>
</svg>
